<svg width="38" height="38" viewBox="0 0 38 38" fill="none" xmlns="http://www.w3.org/2000/svg">
<rect width="38" height="38" rx="4" fill="white" fill-opacity="0.4"/>
<mask id="mask0_270_88" style="mask-type:alpha" maskUnits="userSpaceOnUse" x="7" y="7" width="24" height="24">
<rect x="7" y="7" width="24" height="24" fill="#D9D9D9"/>
</mask>
<g mask="url(#mask0_270_88)">
<path d="M10.45 29L9.02499 27.575L11.45 25.15C10.9667 24.6667 10.6042 24.1167 10.3625 23.5C10.1208 22.8834 9.99999 22.2417 9.99999 21.575C9.99999 20.8917 10.125 20.25 10.375 19.65C10.625 19.05 10.9833 18.5167 11.45 18.05L12.875 16.65L13.575 17.35C13.6583 16.8167 13.8167 16.3084 14.05 15.825C14.2833 15.3417 14.5917 14.9084 14.975 14.525L16.4 13.125L17.1 13.825C17.1833 13.2917 17.3458 12.7834 17.5875 12.3C17.8292 11.8167 18.1417 11.3834 18.525 11L21.375 8.17505L22.775 9.57505L21.375 11C21.7583 11.3834 22.0667 11.8167 22.3 12.3C22.5333 12.7834 22.6917 13.2917 22.775 13.825L27.6 9.00005L29 10.425L24.2 15.25C24.7333 15.3334 25.2417 15.4917 25.725 15.725C26.2083 15.9584 26.6417 16.2667 27.025 16.65L28.425 15.225L29.85 16.65L27.05 19.475C26.6667 19.875 26.225 20.1959 25.725 20.4375C25.225 20.6792 24.7083 20.8417 24.175 20.925L24.875 21.6L23.475 23C23.0917 23.3834 22.6542 23.6959 22.1625 23.9375C21.6708 24.1792 21.1583 24.3417 20.625 24.425L21.35 25.125L19.925 26.55C19.4417 27.0334 18.8958 27.3959 18.2875 27.6375C17.6792 27.8792 17.0417 28 16.375 28C15.8083 28 15.2375 27.8792 14.6625 27.6375C14.0875 27.3959 13.5 27.025 12.9 26.525L10.45 29ZM12.875 23.7C13.1583 23.4167 13.375 23.0959 13.525 22.7375C13.675 22.3792 13.75 22 13.75 21.6C13.75 21.2167 13.675 20.8375 13.525 20.4625C13.375 20.0875 13.1583 19.7584 12.875 19.475C12.5917 19.7584 12.3708 20.0875 12.2125 20.4625C12.0542 20.8375 11.975 21.2167 11.975 21.6C11.975 22 12.0542 22.3792 12.2125 22.7375C12.3708 23.0959 12.5917 23.4167 12.875 23.7ZM16.4 26.025C16.8 26.0084 17.1833 25.925 17.55 25.775C17.9167 25.625 18.2417 25.4084 18.525 25.125C18.2417 24.8417 17.9125 24.625 17.5375 24.475C17.1625 24.3251 16.7833 24.25 16.4 24.25C16.0167 24.25 15.6375 24.3292 15.2625 24.4875C14.8875 24.6459 14.5583 24.8667 14.275 25.15C14.5583 25.4334 14.8833 25.65 15.25 25.8C15.6167 25.95 16 26.025 16.4 26.025ZM16.4 20.175C16.6833 19.8917 16.9 19.5667 17.05 19.2C17.2 18.8334 17.275 18.4584 17.275 18.075C17.275 17.675 17.2 17.2917 17.05 16.925C16.9 16.5584 16.6833 16.2334 16.4 15.95C16.1167 16.2334 15.8958 16.5584 15.7375 16.925C15.5792 17.2917 15.5 17.675 15.5 18.075C15.5 18.4584 15.5792 18.8334 15.7375 19.2C15.8958 19.5667 16.1167 19.8917 16.4 20.175ZM19.95 22.5C20.35 22.5 20.7292 22.4209 21.0875 22.2625C21.4458 22.1042 21.7667 21.8834 22.05 21.6C21.7667 21.3167 21.4458 21.1 21.0875 20.95C20.7292 20.8 20.35 20.725 19.95 20.725C19.55 20.725 19.1667 20.8042 18.8 20.9625C18.4333 21.1209 18.1083 21.3417 17.825 21.625C18.1083 21.9084 18.4333 22.125 18.8 22.275C19.1667 22.425 19.55 22.5 19.95 22.5ZM19.95 16.65C20.2333 16.3667 20.4458 16.0417 20.5875 15.675C20.7292 15.3084 20.8 14.925 20.8 14.525C20.8 14.1417 20.7292 13.7625 20.5875 13.3875C20.4458 13.0125 20.2333 12.6834 19.95 12.4C19.6667 12.6834 19.4458 13.0125 19.2875 13.3875C19.1292 13.7625 19.05 14.1417 19.05 14.525C19.05 14.925 19.1292 15.3084 19.2875 15.675C19.4458 16.0417 19.6667 16.3667 19.95 16.65ZM23.475 18.95C23.8583 18.95 24.2375 18.8709 24.6125 18.7125C24.9875 18.5542 25.3167 18.3334 25.6 18.05C25.3 17.7667 24.9625 17.55 24.5875 17.4C24.2125 17.25 23.8333 17.175 23.45 17.175C23.0667 17.1917 22.6917 17.275 22.325 17.425C21.9583 17.575 21.6333 17.7917 21.35 18.075C21.6333 18.3584 21.9625 18.5792 22.3375 18.7375C22.7125 18.8959 23.0917 18.9667 23.475 18.95Z" fill="white"/>
</g>
</svg>
