<svg width="38" height="38" viewBox="0 0 38 38" fill="none" xmlns="http://www.w3.org/2000/svg">
<rect width="38" height="38" rx="4" fill="white" fill-opacity="0.4"/>
<mask id="mask0_269_841" style="mask-type:alpha" maskUnits="userSpaceOnUse" x="7" y="7" width="24" height="24">
<rect x="7" y="7" width="24" height="24" fill="#D9D9D9"/>
</mask>
<g mask="url(#mask0_269_841)">
<path d="M15.35 29L13.5 28.25L14.95 24.725C13.1833 24.2583 11.75 23.3083 10.65 21.875C9.55 20.4417 9 18.8167 9 17V13C9 11.9 9.39167 10.9583 10.175 10.175C10.9583 9.39167 11.9 9 13 9C13.3667 9 13.7167 9.0625 14.05 9.1875C14.3833 9.3125 14.7167 9.44167 15.05 9.575L21 12L17 13.5V15L28 22L29 27H27L26 25H21V29H19V25H17L15.35 29ZM17 23H25.825L24.25 22H17C15.9 22 14.9583 21.6083 14.175 20.825C13.3917 20.0417 13 19.1 13 18H15C15 18.55 15.1958 19.0208 15.5875 19.4125C15.9792 19.8042 16.45 20 17 20H21.125L15 16.1V13C15 12.45 14.8042 11.9792 14.4125 11.5875C14.0208 11.1958 13.55 11 13 11C12.45 11 11.9792 11.1958 11.5875 11.5875C11.1958 11.9792 11 12.45 11 13V17C11 18.6667 11.5833 20.0833 12.75 21.25C13.9167 22.4167 15.3333 23 17 23ZM12.2875 13.7125C12.0958 13.5208 12 13.2833 12 13C12 12.7167 12.0958 12.4792 12.2875 12.2875C12.4792 12.0958 12.7167 12 13 12C13.2833 12 13.5208 12.0958 13.7125 12.2875C13.9042 12.4792 14 12.7167 14 13C14 13.2833 13.9042 13.5208 13.7125 13.7125C13.5208 13.9042 13.2833 14 13 14C12.7167 14 12.4792 13.9042 12.2875 13.7125Z" fill="white"/>
</g>
</svg>
