<svg width="38" height="38" viewBox="0 0 38 38" fill="none" xmlns="http://www.w3.org/2000/svg">
<rect width="38" height="38" rx="4" fill="white" fill-opacity="0.4"/>
<mask id="mask0_269_826" style="mask-type:alpha" maskUnits="userSpaceOnUse" x="7" y="7" width="24" height="24">
<rect x="7" y="7" width="24" height="24" fill="#D9D9D9"/>
</mask>
<g mask="url(#mask0_269_826)">
<path d="M10 22C9.45 22 8.97917 21.8042 8.5875 21.4125C8.19583 21.0208 8 20.55 8 20V11C8 10.45 8.19583 9.97917 8.5875 9.5875C8.97917 9.19583 9.45 9 10 9H28C28.55 9 29.0208 9.19583 29.4125 9.5875C29.8042 9.97917 30 10.45 30 11V20C30 20.55 29.8042 21.0208 29.4125 21.4125C29.0208 21.8042 28.55 22 28 22H10ZM10 11V20H28V11H10ZM10.075 25.5L10 24L27.975 23.05L28.05 24.55L10.075 25.5ZM10 27.975V26.475H28V27.975H10ZM17.25 18.5C18.4833 18.5 19.6708 18.2833 20.8125 17.85C21.9542 17.4167 22.95 16.75 23.8 15.85C23.9 16.55 24.2667 17.0833 24.9 17.45C25.5333 17.8167 26.2333 18 27 18V13C26.2333 13 25.5333 13.1875 24.9 13.5625C24.2667 13.9375 23.9 14.4833 23.8 15.2C22.9167 14.3333 21.9125 13.6667 20.7875 13.2C19.6625 12.7333 18.4833 12.5 17.25 12.5C15.9333 12.5 14.6667 12.7292 13.45 13.1875C12.2333 13.6458 11.25 14.4167 10.5 15.5C11.25 16.5833 12.2333 17.3542 13.45 17.8125C14.6667 18.2708 15.9333 18.5 17.25 18.5Z" fill="white"/>
</g>
</svg>
