<svg width="38" height="38" viewBox="0 0 38 38" fill="none" xmlns="http://www.w3.org/2000/svg">
<rect width="38" height="38" rx="4" fill="white" fill-opacity="0.4"/>
<mask id="mask0_269_806" style="mask-type:alpha" maskUnits="userSpaceOnUse" x="7" y="7" width="24" height="24">
<rect x="7" y="7" width="24" height="24" fill="#D9D9D9"/>
</mask>
<g mask="url(#mask0_269_806)">
<path d="M23.7125 17.7125C23.9042 17.5208 24 17.2833 24 17C24 16.7167 23.9042 16.4792 23.7125 16.2875C23.5208 16.0958 23.2833 16 23 16C22.7167 16 22.4792 16.0958 22.2875 16.2875C22.0958 16.4792 22 16.7167 22 17C22 17.2833 22.0958 17.5208 22.2875 17.7125C22.4792 17.9042 22.7167 18 23 18C23.2833 18 23.5208 17.9042 23.7125 17.7125ZM15 16H20V14H15V16ZM11.5 28C10.9333 26.1 10.375 24.2042 9.825 22.3125C9.275 20.4208 9 18.4833 9 16.5C9 14.9667 9.53333 13.6667 10.6 12.6C11.6667 11.5333 12.9667 11 14.5 11H19.5C19.9833 10.3667 20.5708 9.875 21.2625 9.525C21.9542 9.175 22.7 9 23.5 9C23.9167 9 24.2708 9.14583 24.5625 9.4375C24.8542 9.72917 25 10.0833 25 10.5C25 10.6 24.9875 10.7 24.9625 10.8C24.9375 10.9 24.9083 10.9917 24.875 11.075C24.8083 11.2583 24.7458 11.4458 24.6875 11.6375C24.6292 11.8292 24.5833 12.025 24.55 12.225L26.825 14.5H29V21.475L26.175 22.4L24.5 28H19V26H17V28H11.5ZM13 26H15V24H21V26H23L24.55 20.85L27 20.025V16.5H26L22.5 13C22.5 12.6667 22.5208 12.3458 22.5625 12.0375C22.6042 11.7292 22.6667 11.4167 22.75 11.1C22.2667 11.2333 21.8417 11.4625 21.475 11.7875C21.1083 12.1125 20.8417 12.5167 20.675 13H14.5C13.5333 13 12.7083 13.3417 12.025 14.025C11.3417 14.7083 11 15.5333 11 16.5C11 18.1333 11.225 19.7292 11.675 21.2875C12.125 22.8458 12.5667 24.4167 13 26Z" fill="white"/>
</g>
</svg>
