<svg width="38" height="38" viewBox="0 0 38 38" fill="none" xmlns="http://www.w3.org/2000/svg">
<rect width="38" height="38" rx="4" fill="white" fill-opacity="0.4"/>
<mask id="mask0_270_78" style="mask-type:alpha" maskUnits="userSpaceOnUse" x="7" y="7" width="24" height="24">
<rect x="7" y="7" width="24" height="24" fill="#D9D9D9"/>
</mask>
<g mask="url(#mask0_270_78)">
<path d="M16.5 29C15.25 29 14.1875 28.5625 13.3125 27.6875C12.4375 26.8125 12 25.75 12 24.5C12 23.9167 12.1417 23.3792 12.425 22.8875C12.7083 22.3958 13.2333 21.7667 14 21C14.1 20.9 14.1958 20.7958 14.2875 20.6875C14.3792 20.5792 14.5 20.4333 14.65 20.25C13.8 18.95 13.1458 17.5875 12.6875 16.1625C12.2292 14.7375 12 13.35 12 12C12 11.0333 12.175 10.2917 12.525 9.775C12.875 9.25833 13.3667 9 14 9C14.95 9 15.8 9.45833 16.55 10.375C17.3 11.2917 17.8667 12.1333 18.25 12.9C18.4 13.2333 18.5375 13.5708 18.6625 13.9125C18.7875 14.2542 18.9 14.6083 19 14.975C19.1 14.6083 19.2125 14.2542 19.3375 13.9125C19.4625 13.5708 19.6083 13.2333 19.775 12.9C20.1417 12.1333 20.7 11.2917 21.45 10.375C22.2 9.45833 23.05 9 24 9C24.6333 9 25.125 9.25833 25.475 9.775C25.825 10.2917 26 11.0333 26 12C26 13.35 25.7708 14.7375 25.3125 16.1625C24.8542 17.5875 24.2 18.95 23.35 20.25C23.5 20.4333 23.6208 20.5792 23.7125 20.6875C23.8042 20.7958 23.9 20.9 24 21C24.7667 21.7667 25.2917 22.3958 25.575 22.8875C25.8583 23.3792 26 23.9167 26 24.5C26 25.75 25.5625 26.8125 24.6875 27.6875C23.8125 28.5625 22.75 29 21.5 29C20.75 29 20.1458 28.9167 19.6875 28.75L19 28.5L18.3125 28.75C17.8542 28.9167 17.25 29 16.5 29ZM16.5 27C16.8833 27 17.2667 26.9542 17.65 26.8625C18.0333 26.7708 18.3917 26.6333 18.725 26.45C18.5417 26.3667 18.375 26.225 18.225 26.025C18.075 25.825 18 25.65 18 25.5C18 25.3667 18.0958 25.25 18.2875 25.15C18.4792 25.05 18.7167 25 19 25C19.2833 25 19.5208 25.05 19.7125 25.15C19.9042 25.25 20 25.3667 20 25.5C20 25.65 19.925 25.825 19.775 26.025C19.625 26.225 19.4583 26.3667 19.275 26.45C19.6083 26.6333 19.9667 26.7708 20.35 26.8625C20.7333 26.9542 21.1167 27 21.5 27C22.2 27 22.7917 26.7583 23.275 26.275C23.7583 25.7917 24 25.2 24 24.5C24 24.2 23.9167 23.9083 23.75 23.625C23.5833 23.3417 23.3333 23.0583 23 22.775C22.7667 22.575 22.575 22.4 22.425 22.25C22.275 22.1 22.0333 21.8167 21.7 21.4C21.2167 20.8167 20.8167 20.4375 20.5 20.2625C20.1833 20.0875 19.6833 20 19 20C18.3167 20 17.8125 20.0875 17.4875 20.2625C17.1625 20.4375 16.7667 20.8167 16.3 21.4C15.9667 21.8167 15.725 22.1 15.575 22.25C15.425 22.4 15.2333 22.575 15 22.775C14.6667 23.0583 14.4167 23.3417 14.25 23.625C14.0833 23.9083 14 24.2 14 24.5C14 25.2 14.2417 25.7917 14.725 26.275C15.2083 26.7583 15.8 27 16.5 27ZM17.5 23.75C17.3667 23.75 17.25 23.675 17.15 23.525C17.05 23.375 17 23.2 17 23C17 22.8 17.05 22.625 17.15 22.475C17.25 22.325 17.3667 22.25 17.5 22.25C17.6333 22.25 17.75 22.325 17.85 22.475C17.95 22.625 18 22.8 18 23C18 23.2 17.95 23.375 17.85 23.525C17.75 23.675 17.6333 23.75 17.5 23.75ZM20.5 23.75C20.3667 23.75 20.25 23.675 20.15 23.525C20.05 23.375 20 23.2 20 23C20 22.8 20.05 22.625 20.15 22.475C20.25 22.325 20.3667 22.25 20.5 22.25C20.6333 22.25 20.75 22.325 20.85 22.475C20.95 22.625 21 22.8 21 23C21 23.2 20.95 23.375 20.85 23.525C20.75 23.675 20.6333 23.75 20.5 23.75ZM16.075 18.775C16.2583 18.6417 16.4667 18.525 16.7 18.425C16.9333 18.325 17.1917 18.2333 17.475 18.15C17.4417 17.35 17.3208 16.5542 17.1125 15.7625C16.9042 14.9708 16.6417 14.25 16.325 13.6C16.0083 12.9333 15.6583 12.3708 15.275 11.9125C14.8917 11.4542 14.5083 11.1583 14.125 11.025C14.0917 11.125 14.0625 11.2542 14.0375 11.4125C14.0125 11.5708 14 11.7667 14 12C14 13.1333 14.1792 14.2833 14.5375 15.45C14.8958 16.6167 15.4083 17.725 16.075 18.775ZM21.925 18.775C22.5917 17.725 23.1042 16.6167 23.4625 15.45C23.8208 14.2833 24 13.1333 24 12C24 11.7667 23.9875 11.5708 23.9625 11.4125C23.9375 11.2542 23.9083 11.125 23.875 11.025C23.4917 11.1583 23.1083 11.4542 22.725 11.9125C22.3417 12.3708 21.9917 12.9333 21.675 13.6C21.375 14.25 21.1208 14.9708 20.9125 15.7625C20.7042 16.5542 20.575 17.35 20.525 18.15C20.775 18.2167 21.0167 18.3042 21.25 18.4125C21.4833 18.5208 21.7083 18.6417 21.925 18.775Z" fill="white"/>
</g>
</svg>
