<svg width="38" height="38" viewBox="0 0 38 38" fill="none" xmlns="http://www.w3.org/2000/svg">
<rect width="38" height="38" rx="4" fill="white" fill-opacity="0.4"/>
<mask id="mask0_269_811" style="mask-type:alpha" maskUnits="userSpaceOnUse" x="7" y="7" width="24" height="24">
<rect x="7" y="7" width="24" height="24" fill="#D9D9D9"/>
</mask>
<g mask="url(#mask0_269_811)">
<path d="M16.1375 27.175C15.2958 26.625 14.6083 25.9 14.075 25L11.7 26.35L10.7 24.625L13.275 23.125C13.225 22.9417 13.1833 22.7542 13.15 22.5625C13.1167 22.3708 13.0833 22.1833 13.05 22H10V20H13.05C13.0833 19.8 13.1167 19.6042 13.15 19.4125C13.1833 19.2208 13.225 19.0333 13.275 18.85L10.7 17.35L11.7 15.625L14.05 17C14.1833 16.7667 14.3375 16.5375 14.5125 16.3125C14.6875 16.0875 14.8667 15.8833 15.05 15.7C15.0167 15.5833 15 15.4667 15 15.35V15C15 14.6 15.0583 14.2167 15.175 13.85C15.2917 13.4833 15.45 13.1417 15.65 12.825L14 11.175L15.4 9.75L17.15 11.45C17.4333 11.3 17.7292 11.1875 18.0375 11.1125C18.3458 11.0375 18.6667 11 19 11C19.3333 11 19.6583 11.0417 19.975 11.125C20.2917 11.2083 20.5917 11.325 20.875 11.475L22.6 9.75L24 11.175L22.35 12.825C22.55 13.1417 22.7042 13.4833 22.8125 13.85C22.9208 14.2167 22.975 14.6 22.975 15V15.3375C22.975 15.4458 22.9583 15.5583 22.925 15.675C23.1083 15.8583 23.2875 16.0667 23.4625 16.3C23.6375 16.5333 23.7917 16.7667 23.925 17L26.3 15.65L27.3 17.375L24.7 18.85C24.75 19.0333 24.7958 19.2208 24.8375 19.4125C24.8792 19.6042 24.9167 19.8 24.95 20H28V22H24.95C24.9167 22.2 24.8833 22.3958 24.85 22.5875C24.8167 22.7792 24.775 22.9667 24.725 23.15L27.3 24.65L26.3 26.375L23.925 25C23.3917 25.9 22.7042 26.625 21.8625 27.175C21.0208 27.725 20.0667 28 19 28C17.9333 28 16.9792 27.725 16.1375 27.175ZM17.1 14.35C17.3833 14.2333 17.6875 14.1458 18.0125 14.0875C18.3375 14.0292 18.6667 14 19 14C19.3333 14 19.6542 14.025 19.9625 14.075C20.2708 14.125 20.5667 14.2083 20.85 14.325C20.7167 13.9417 20.4833 13.625 20.15 13.375C19.8167 13.125 19.4333 13 19 13C18.5667 13 18.175 13.1292 17.825 13.3875C17.475 13.6458 17.2333 13.9667 17.1 14.35ZM19 26C20.2167 26 21.1875 25.4917 21.9125 24.475C22.6375 23.4583 23 22.3 23 21C23 19.8333 22.6625 18.7083 21.9875 17.625C21.3125 16.5417 20.3167 16 19 16C17.7 16 16.7083 16.5375 16.025 17.6125C15.3417 18.6875 15 19.8167 15 21C15 22.3 15.3625 23.4583 16.0875 24.475C16.8125 25.4917 17.7833 26 19 26ZM18 24V18H20V24H18Z" fill="white"/>
</g>
</svg>
