<svg width="20" height="20" viewBox="0 0 20 20" fill="none" xmlns="http://www.w3.org/2000/svg">
<g clip-path="url(#clip0_282_100)">
<path d="M0 0H20V20H0" fill="#BD3D44"/>
<path d="M0 2.3042H20H0ZM0 5.37503H20H0ZM0 8.45837H20H0ZM0 11.5417H20H0ZM0 14.625H20H0ZM0 17.7084H20H0Z" fill="black"/>
<path d="M0 1.53333V3.07499H20V1.53333H0ZM0 4.60416V6.14582H20V4.60416H0ZM0 7.68749V9.22916H20V7.68749H0ZM0 10.7708V12.3125H20V10.7708H0ZM0 13.8542V15.3958H20V13.8542H0ZM0 16.9375V18.4792H20V16.9375H0Z" fill="white"/>
<path d="M0 0H11.4V10.7708H0" fill="#192F5D"/>
<path d="M10.4375 9.08337L10.7188 10.2084L10 9.50004H10.875L10.1562 10.2084L10.4375 9.08337ZM8.5625 9.08337L8.84375 10.2084L8.125 9.50004H9L8.28125 10.2084L8.5625 9.08337ZM6.65625 9.08337L6.9375 10.2084L6.21875 9.50004H7.09375L6.375 10.2084L6.65625 9.08337ZM4.75 9.08337L5.03125 10.2084L4.3125 9.50004H5.1875L4.46875 10.2084L4.75 9.08337ZM2.84375 9.08337L3.125 10.2084L2.40625 9.50004H3.28125L2.5625 10.2084L2.84375 9.08337ZM0.9375 9.08337L1.21875 10.2084L0.5 9.50004H1.375L0.65625 10.2084L0.9375 9.08337ZM9.5 8.00004L9.78125 9.12504L9.0625 8.41671H9.9375L9.21875 9.12504L9.5 8.00004ZM7.59375 8.00004L7.875 9.12504L7.15625 8.41671H8.03125L7.3125 9.12504L7.59375 8.00004ZM5.71875 8.00004L6 9.12504L5.28125 8.41671H6.15625L5.4375 9.12504L5.71875 8.00004ZM3.8125 8.00004L4.09375 9.12504L3.375 8.41671H4.25L3.53125 9.12504L3.8125 8.00004ZM1.90625 8.00004L2.1875 9.12504L1.46875 8.41671H2.34375L1.625 9.12504L1.90625 8.00004ZM10.4375 6.91671L10.7188 8.04171L10 7.33337H10.875L10.1562 8.04171L10.4375 6.91671ZM8.5625 6.91671L8.84375 8.04171L8.125 7.33337H9L8.28125 8.04171L8.5625 6.91671ZM6.65625 6.91671L6.9375 8.04171L6.21875 7.33337H7.09375L6.375 8.04171L6.65625 6.91671ZM4.75 6.91671L5.03125 8.04171L4.3125 7.33337H5.1875L4.46875 8.04171L4.75 6.91671ZM2.84375 6.91671L3.125 8.04171L2.40625 7.33337H3.28125L2.5625 8.04171L2.84375 6.91671ZM0.9375 6.91671L1.21875 8.04171L0.5 7.33337H1.375L0.65625 8.04171L0.9375 6.91671ZM9.5 5.87504L9.78125 7.00004L9.0625 6.29171H9.9375L9.21875 7.00004L9.5 5.87504ZM7.59375 5.87504L7.875 7.00004L7.15625 6.29171H8.03125L7.3125 7.00004L7.59375 5.87504ZM5.71875 5.87504L6 7.00004L5.28125 6.29171H6.15625L5.4375 7.00004L5.71875 5.87504ZM3.8125 5.87504L4.09375 7.00004L3.375 6.29171H4.25L3.53125 7.00004L3.8125 5.87504ZM1.90625 5.87504L2.1875 7.00004L1.46875 6.29171H2.34375L1.625 7.00004L1.90625 5.87504ZM10.4375 4.79171L10.7188 5.91671L10 5.20837H10.875L10.1562 5.91671L10.4375 4.79171ZM8.5625 4.79171L8.84375 5.91671L8.125 5.20837H9L8.28125 5.91671L8.5625 4.79171ZM6.65625 4.79171L6.9375 5.91671L6.21875 5.20837H7.09375L6.375 5.91671L6.65625 4.79171ZM4.75 4.79171L5.03125 5.91671L4.3125 5.20837H5.1875L4.46875 5.91671L4.75 4.79171ZM2.84375 4.79171L3.125 5.91671L2.40625 5.20837H3.28125L2.5625 5.91671L2.84375 4.79171ZM0.9375 4.79171L1.21875 5.91671L0.5 5.20837H1.375L0.65625 5.91671L0.9375 4.79171ZM9.5 3.70837L9.78125 4.83337L9.0625 4.12504H9.9375L9.21875 4.83337L9.5 3.70837ZM7.59375 3.70837L7.875 4.83337L7.15625 4.12504H8.03125L7.3125 4.83337L7.59375 3.70837ZM5.71875 3.70837L6 4.83337L5.28125 4.12504H6.15625L5.4375 4.83337L5.71875 3.70837ZM3.8125 3.70837L4.09375 4.83337L3.375 4.12504H4.25L3.53125 4.83337L3.8125 3.70837ZM1.90625 3.70837L2.1875 4.83337L1.46875 4.12504H2.34375L1.625 4.83337L1.90625 3.70837ZM10.4375 2.62504L10.7188 3.75004L10 3.04171H10.875L10.1562 3.75004L10.4375 2.62504ZM8.5625 2.62504L8.84375 3.75004L8.125 3.04171H9L8.28125 3.75004L8.5625 2.62504ZM6.65625 2.62504L6.9375 3.75004L6.21875 3.04171H7.09375L6.375 3.75004L6.65625 2.62504ZM4.75 2.62504L5.03125 3.75004L4.3125 3.04171H5.1875L4.46875 3.75004L4.75 2.62504ZM2.84375 2.62504L3.125 3.75004L2.40625 3.04171H3.28125L2.5625 3.75004L2.84375 2.62504ZM0.9375 2.62504L1.21875 3.75004L0.5 3.04171H1.375L0.65625 3.75004L0.9375 2.62504ZM9.5 1.54171L9.78125 2.66671L9.0625 1.95837H9.9375L9.21875 2.66671L9.5 1.54171ZM7.59375 1.54171L7.875 2.66671L7.15625 1.95837H8.03125L7.3125 2.66671L7.59375 1.54171ZM5.71875 1.54171L6 2.66671L5.28125 1.95837H6.15625L5.4375 2.66671L5.71875 1.54171ZM3.8125 1.54171L4.09375 2.66671L3.375 1.95837H4.25L3.53125 2.66671L3.8125 1.54171ZM1.90625 1.54171L2.1875 2.66671L1.46875 1.95837H2.34375L1.625 2.66671L1.90625 1.54171ZM10.4375 0.458374L10.7188 1.58337L10 0.875041H10.875L10.1562 1.58337L10.4375 0.458374ZM8.5625 0.458374L8.84375 1.58337L8.125 0.875041H9L8.28125 1.58337L8.5625 0.458374ZM6.65625 0.458374L6.9375 1.58337L6.21875 0.875041H7.09375L6.375 1.58337L6.65625 0.458374ZM4.75 0.458374L5.03125 1.58337L4.3125 0.875041H5.1875L4.46875 1.58337L4.75 0.458374ZM2.84375 0.458374L3.125 1.58337L2.40625 0.875041H3.28125L2.5625 1.58337L2.84375 0.458374ZM0.9375 0.458374L1.21875 1.58337L0.5 0.875041H1.375L0.65625 1.58337L0.9375 0.458374Z" fill="white"/>
</g>
<defs>
<clipPath id="clip0_282_100">
<rect width="20" height="20" rx="10" fill="white"/>
</clipPath>
</defs>
</svg>
